<svg width="762" height="829" viewBox="0 0 762 829" fill="none" xmlns="http://www.w3.org/2000/svg">
<path d="M761.333 55.2889V92.114H742.75V221.079H724.219V331.605H742.75V423.693H724.219V497.395H742.75V534.22H724.219V589.509H705.636V626.334H687.053V644.798H668.496V663.21H649.913V681.623H631.33V700.035H594.19V736.886H575.659V755.299H482.821V773.711H445.63V792.124H389.958V810.587H315.652V829H241.398V810.587H222.815V755.299H259.955V736.886H148.56V755.299H18.5314V736.886H0V681.623H74.2544V663.21H92.8374V626.334H111.395V607.921H129.977V589.509H167.092V571.096H185.7V552.684H204.232V534.22H222.815V515.807H241.398V497.395H259.955V460.518H278.538V442.106H297.121V423.693H315.652V386.868H334.261V368.43H352.792V331.605H389.958V313.193H408.515V294.729H427.098V276.316H445.63V239.491H464.213V202.615H482.821V128.965H464.213V110.526H445.63V55.2889H501.353V36.825H538.493V18.4125H575.659V0H631.33V18.4125H687.053V36.825H742.75V55.2889H761.333Z" fill="#E31B23"/>
</svg>
