<svg width="1255" height="1369" viewBox="0 0 1255 1369" fill="none" xmlns="http://www.w3.org/2000/svg">
<path d="M1254.81 91.3034V152.116H1224.18V365.086H1193.64V547.608H1224.18V699.682H1193.64V821.391H1224.18V882.204H1193.64V973.507H1163.01V1034.32H1132.38V1064.81H1101.8V1095.22H1071.17V1125.62H1040.54V1156.03H979.327V1216.88H948.784V1247.29H795.772V1277.7H734.474V1308.1H642.717V1338.59H520.249V1369H397.865V1338.59H367.237V1247.29H428.45V1216.88H244.853V1247.29H30.543V1216.88H0V1125.62H122.384V1095.22H153.012V1034.32H183.597V1003.91H214.225V973.507H275.396V943.101H306.066V912.695H336.609V882.204H367.237V851.798H397.865V821.391H428.45V760.494H459.078V730.088H489.706V699.682H520.249V638.869H550.919V608.421H581.462V547.608H642.717V517.202H673.303V486.711H703.931V456.305H734.474V395.493H765.102V334.595H795.772V212.971H765.102V182.522H734.474V91.3034H826.315V60.8124H887.528V30.4062H948.784V0H1040.54V30.4062H1132.38V60.8124H1224.18V91.3034H1254.81Z" fill="#E31B23"/>
</svg>
