<svg width="1920" height="1920" viewBox="0 0 1920 1920" fill="none" xmlns="http://www.w3.org/2000/svg">
<g clip-path="url(#clip0_533_350)">
<g clip-path="url(#clip1_533_350)">
<mask id="mask0_533_350" style="mask-type:luminance" maskUnits="userSpaceOnUse" x="-203" y="-1" width="2334" height="1976">
<path d="M2130.2 -0.646496H-202.268V1975H2130.2V-0.646496Z" fill="white"/>
</mask>
<g mask="url(#mask0_533_350)">
<path d="M2103.03 -0.492554H-202.268V1969.91H2103.03V-0.492554Z" fill="black"/>
<path d="M284.958 1975V824.084L269.305 1975H284.958Z" fill="white"/>
<path d="M241.274 1975V824.093L225.621 1975H241.274Z" fill="white"/>
<path d="M197.593 1975V824.089L181.939 1975H197.593Z" fill="white"/>
<path d="M153.909 1975V824.084L138.254 1975H153.909Z" fill="white"/>
<path d="M110.227 1975V824.089L94.5742 1975H110.227Z" fill="white"/>
<path d="M22.8603 1975V824.093L7.20703 1975H22.8603Z" fill="white"/>
<path d="M66.5433 1975V824.084L50.8887 1975H66.5433Z" fill="white"/>
<path d="M390.526 -3.28936L389.797 -460.608V1466.44L416.007 -460.608V-3.28936H390.526Z" fill="white"/>
<path d="M303.159 -3.28936L302.432 -460.608V1466.44L328.64 -460.608V-3.28936H303.159Z" fill="white"/>
<path d="M477.892 -3.28936L477.164 -460.608V1466.44L503.374 -460.608V-3.28936H477.892Z" fill="white"/>
<path d="M346.843 -3.28936L346.115 -460.608V1466.43L372.326 -460.608V-3.28936H346.843Z" fill="white"/>
<path d="M434.208 -3.28951L433.48 -460.6V1466.44L459.689 -460.6V-3.28951H434.208Z" fill="white"/>
<path d="M521.576 -3.28936L520.848 -460.608V1466.44L547.057 -460.608V-3.28936H521.576Z" fill="white"/>
<path d="M608.941 -3.28936L608.213 -460.608V1466.44L634.422 -460.608V-3.28936H608.941Z" fill="white"/>
<path d="M565.257 -3.28936L564.529 -460.608V1466.43L590.74 -460.608V-3.28936H565.257Z" fill="white"/>
<path d="M215.794 -3.28951L215.066 -460.6V1466.44L241.275 -460.6V-3.28951H215.794Z" fill="white"/>
<path d="M41.0618 -3.28936L40.334 -460.608V1466.44L66.5443 -460.608V-3.28936H41.0618Z" fill="white"/>
<path d="M-2.62317 -3.28951L-3.34961 -460.6V1466.44L22.8593 -460.6V-3.28951H-2.62317Z" fill="white"/>
<path d="M84.7434 -3.28936L84.0156 -460.608V1466.44L110.226 -460.608V-3.28936H84.7434Z" fill="white"/>
<path d="M328.642 1975V824.089L312.988 1975H328.642Z" fill="white"/>
<path d="M259.478 -3.28936L258.75 -460.608V1466.44L284.96 -460.608V-3.28936H259.478Z" fill="white"/>
<path d="M128.427 -3.28936L127.699 -460.608V1466.43L153.91 -460.608V-3.28936H128.427Z" fill="white"/>
<path d="M172.109 -3.28936L171.381 -460.608V1466.44L197.591 -460.608V-3.28936H172.109Z" fill="white"/>
<path d="M416.007 1975V824.089L400.354 1975H416.007Z" fill="white"/>
<path d="M1508.08 1975V824.084L1492.43 1975H1508.08Z" fill="white"/>
<path d="M1289.67 1975V824.084L1274.01 1975H1289.67Z" fill="white"/>
<path d="M1377.03 1975V824.084L1361.38 1975H1377.03Z" fill="white"/>
<path d="M1464.4 1975V824.084L1448.75 1975H1464.4Z" fill="white"/>
<path d="M1333.35 1975V824.089L1317.7 1975H1333.35Z" fill="white"/>
<path d="M1114.93 1975V824.089L1099.28 1975H1114.93Z" fill="white"/>
<path d="M1245.98 1975V824.084L1230.33 1975H1245.98Z" fill="white"/>
<path d="M1202.3 1975V824.089L1186.65 1975H1202.3Z" fill="white"/>
<path d="M1158.62 1975V824.084L1142.96 1975H1158.62Z" fill="white"/>
<path d="M1551.76 1975V824.089L1536.11 1975H1551.76Z" fill="white"/>
<path d="M1726.5 1975V824.084L1710.84 1975H1726.5Z" fill="white"/>
<path d="M1813.86 1975V824.084L1798.21 1975H1813.86Z" fill="white"/>
<path d="M1770.18 1975V824.081L1754.53 1975H1770.18Z" fill="white"/>
<path d="M1595.45 1975V824.084L1579.79 1975H1595.45Z" fill="white"/>
<path d="M1639.13 1975V824.089L1623.48 1975H1639.13Z" fill="white"/>
<path d="M1682.81 1975V824.084L1667.16 1975H1682.81Z" fill="white"/>
<path d="M1071.25 1975V824.084L1055.6 1975H1071.25Z" fill="white"/>
<path d="M547.058 1975V824.089L531.404 1975H547.058Z" fill="white"/>
<path d="M590.739 1975V824.084L575.086 1975H590.739Z" fill="white"/>
<path d="M634.423 1975V824.089L618.77 1975H634.423Z" fill="white"/>
<path d="M678.106 1975V824.093L662.451 1975H678.106Z" fill="white"/>
<path d="M459.688 1975V824.093L444.035 1975H459.688Z" fill="white"/>
<path d="M652.624 -3.28951L651.896 -460.6V1466.44L678.107 -460.6V-3.28951H652.624Z" fill="white"/>
<path d="M503.374 1975V824.084L487.721 1975H503.374Z" fill="white"/>
<path d="M721.788 1975V824.084L706.135 1975H721.788Z" fill="white"/>
<path d="M940.204 1975V824.084L924.551 1975H940.204Z" fill="white"/>
<path d="M372.325 1975V824.084L356.67 1975H372.325Z" fill="white"/>
<path d="M983.887 1975V824.089L968.232 1975H983.887Z" fill="white"/>
<path d="M765.472 1975V824.089L749.818 1975H765.472Z" fill="white"/>
<path d="M1027.57 1975V824.084L1011.92 1975H1027.57Z" fill="white"/>
<path d="M809.155 1975V824.084L793.502 1975H809.155Z" fill="white"/>
<path d="M896.52 1975V824.089L880.865 1975H896.52Z" fill="white"/>
<path d="M852.837 1975V824.084L837.184 1975H852.837Z" fill="white"/>
<path d="M1420.72 1975V824.089L1405.06 1975H1420.72Z" fill="white"/>
<path d="M1788.38 -3.28936L1787.65 -460.608V1466.43L1813.86 -460.608V-3.28936H1788.38Z" fill="white"/>
<path d="M1613.65 -3.28936L1612.92 -460.608V1466.44L1639.13 -460.608V-3.28936H1613.65Z" fill="white"/>
<path d="M1569.97 -3.28936L1569.24 -460.608V1466.43L1595.45 -460.608V-3.28936H1569.97Z" fill="white"/>
<path d="M1482.6 -3.28936L1481.87 -460.608V1466.44L1508.08 -460.608V-3.28936H1482.6Z" fill="white"/>
<path d="M1045.77 -3.28936L1045.04 -460.608V1466.44L1071.25 -460.608V-3.28936H1045.77Z" fill="white"/>
<path d="M1744.7 -3.28926L1743.97 -460.608V1466.44L1770.18 -460.617V-3.28926H1744.7Z" fill="white"/>
<path d="M1657.33 -3.28936L1656.61 -460.608V1466.43L1682.81 -460.608V-3.28936H1657.33Z" fill="white"/>
<path d="M1438.92 -3.28936L1438.19 -460.608V1466.43L1464.4 -460.608V-3.28936H1438.92Z" fill="white"/>
<path d="M1526.28 -3.28936L1525.55 -460.608V1466.44L1551.76 -460.608V-3.28936H1526.28Z" fill="white"/>
<path d="M1133.14 -3.28936L1132.41 -460.608V1466.43L1158.62 -460.608V-3.28936H1133.14Z" fill="white"/>
<path d="M1089.46 -3.28936L1088.73 -460.608V1466.44L1114.94 -460.608V-3.28936H1089.46Z" fill="white"/>
<path d="M1395.23 -3.28936L1394.51 -460.608V1466.44L1420.72 -460.608V-3.28936H1395.23Z" fill="white"/>
<path d="M1176.82 -3.28936L1176.09 -460.608V1466.44L1202.3 -460.608V-3.28936H1176.82Z" fill="white"/>
<path d="M1307.87 -3.28936L1307.14 -460.608V1466.44L1333.35 -460.608V-3.28936H1307.87Z" fill="white"/>
<path d="M1264.18 -3.28936L1263.46 -460.608V1466.44L1289.67 -460.608V-3.28936H1264.18Z" fill="white"/>
<path d="M1220.5 -3.28936L1219.78 -460.608V1466.43L1245.98 -460.608V-3.28936H1220.5Z" fill="white"/>
<path d="M1701.02 -3.28936L1700.29 -460.608V1466.44L1726.5 -460.608V-3.28936H1701.02Z" fill="white"/>
<path d="M1832.07 -3.28936L1831.34 -460.608V1466.44L1857.55 -460.608V-3.28936H1832.07Z" fill="white"/>
<path d="M1875.75 -3.2893L1875.02 -460.617V1466.43L1901.23 -460.608V-3.2893H1875.75Z" fill="white"/>
<path d="M1901.23 1975V824.081L1885.58 1975H1901.23Z" fill="white"/>
<path d="M1857.55 1975V824.084L1841.89 1975H1857.55Z" fill="white"/>
<path d="M1919.43 -3.28936L1918.7 -460.608V1466.44L1944.91 -460.608V-3.28936H1919.43Z" fill="white"/>
<path d="M1351.55 -3.28936L1350.82 -460.608V1466.43L1377.03 -460.608V-3.28936H1351.55Z" fill="white"/>
<path d="M783.675 -3.28936L782.945 -460.608V1466.43L809.156 -460.608V-3.28936H783.675Z" fill="white"/>
<path d="M958.404 -3.28936L957.676 -460.608V1466.44L983.886 -460.608V-3.28936H958.404Z" fill="white"/>
<path d="M871.038 -3.28936L870.311 -460.608V1466.44L896.521 -460.6V-3.28936H871.038Z" fill="white"/>
<path d="M1002.09 -3.28936L1001.36 -460.608V1466.43L1027.57 -460.608V-3.28936H1002.09Z" fill="white"/>
<path d="M827.357 -3.28936L826.629 -460.608V1466.44L852.838 -460.608V-3.28936H827.357Z" fill="white"/>
<path d="M914.722 -3.28936L913.994 -460.608V1466.44L940.203 -460.608V-3.28936H914.722Z" fill="white"/>
<path d="M739.989 -3.28936L739.262 -460.608V1466.44L765.471 -460.608V-3.28936H739.989Z" fill="white"/>
<path d="M696.307 -3.28936L695.578 -460.608V1466.44L721.788 -460.608V-3.28936H696.307Z" fill="white"/>
<path d="M23.5872 -3.28936L22.8594 -460.6V824.093L40.3329 -460.608V-3.28936H23.5872Z" fill="white"/>
<path d="M40.3325 1975V1466.44L33.416 1975H40.3325Z" fill="white"/>
<path d="M67.2708 -3.28936L66.543 -460.608V824.084L84.0151 -460.608V-3.28936H67.2708Z" fill="white"/>
<path d="M84.0161 1975V1466.44L77.0996 1975H84.0161Z" fill="white"/>
<path d="M110.954 -3.28932L110.227 -460.608V824.09L127.7 -460.608V-3.28932H110.954Z" fill="white"/>
<path d="M127.699 1975V1466.43L120.781 1975H127.699Z" fill="white"/>
<path d="M154.638 -3.28936L153.91 -460.608V824.084L171.382 -460.608V-3.28936H154.638Z" fill="white"/>
<path d="M171.381 1975V1466.44L164.465 1975H171.381Z" fill="white"/>
<path d="M198.32 -3.28932L197.592 -460.608V824.09L215.065 -460.6V-3.28932H198.32Z" fill="white"/>
<path d="M215.066 1975V1466.44L208.148 1975H215.066Z" fill="white"/>
<path d="M242.003 -3.28936L241.275 -460.6V824.093L258.749 -460.608V-3.28936H242.003Z" fill="white"/>
<path d="M258.749 1975V1466.44L251.832 1975H258.749Z" fill="white"/>
<path d="M285.685 -3.28936L284.957 -460.608V824.084L302.431 -460.608V-3.28936H285.685Z" fill="white"/>
<path d="M302.432 1975V1466.44L295.514 1975H302.432Z" fill="white"/>
<path d="M329.368 -3.28932L328.641 -460.608V824.09L346.114 -460.608V-3.28932H329.368Z" fill="white"/>
<path d="M346.114 1975V1466.43L339.197 1975H346.114Z" fill="white"/>
<path d="M373.054 -3.28936L372.326 -460.608V824.084L389.798 -460.608V-3.28936H373.054Z" fill="white"/>
<path d="M389.797 1975V1466.44L382.881 1975H389.797Z" fill="white"/>
<path d="M416.734 -3.28932L416.006 -460.608V824.09L433.479 -460.6V-3.28932H416.734Z" fill="white"/>
<path d="M433.48 1975V1466.44L426.562 1975H433.48Z" fill="white"/>
<path d="M460.419 -3.28936L459.689 -460.6V824.093L477.163 -460.608V-3.28936H460.419Z" fill="white"/>
<path d="M477.163 1975V1466.44L470.246 1975H477.163Z" fill="white"/>
<path d="M504.101 -3.28936L503.373 -460.608V824.084L520.847 -460.608V-3.28936H504.101Z" fill="white"/>
<path d="M520.848 1975V1466.44L513.93 1975H520.848Z" fill="white"/>
<path d="M547.783 -3.28932L547.055 -460.608V824.09L564.528 -460.608V-3.28932H547.783Z" fill="white"/>
<path d="M564.528 1975V1466.43L557.611 1975H564.528Z" fill="white"/>
<path d="M591.468 -3.28936L590.74 -460.608V824.084L608.214 -460.608V-3.28936H591.468Z" fill="white"/>
<path d="M608.213 1975V1466.44L601.295 1975H608.213Z" fill="white"/>
<path d="M635.15 -3.28932L634.422 -460.608V824.09L651.895 -460.6V-3.28932H635.15Z" fill="white"/>
<path d="M651.897 1975V1466.44L644.98 1975H651.897Z" fill="white"/>
<path d="M678.835 -3.28936L678.107 -460.6V824.093L695.58 -460.608V-3.28936H678.835Z" fill="white"/>
<path d="M695.577 1975V1466.44L688.66 1975H695.577Z" fill="white"/>
<path d="M722.515 -3.28936L721.787 -460.608V824.084L739.261 -460.608V-3.28936H722.515Z" fill="white"/>
<path d="M739.262 1975V1466.44L732.344 1975H739.262Z" fill="white"/>
<path d="M766.2 -3.28932L765.471 -460.608V824.09L782.944 -460.608V-3.28932H766.2Z" fill="white"/>
<path d="M782.944 1975V1466.43L776.027 1975H782.944Z" fill="white"/>
<path d="M809.882 -3.28936L809.154 -460.608V824.084L826.628 -460.608V-3.28936H809.882Z" fill="white"/>
<path d="M826.627 1975V1466.44L819.709 1975H826.627Z" fill="white"/>
<path d="M853.564 -3.28936L852.836 -460.608V824.084L870.309 -460.608V-3.28936H853.564Z" fill="white"/>
<path d="M870.311 1975V1466.44L863.395 1975H870.311Z" fill="white"/>
<path d="M897.249 -3.28932L896.521 -460.6V824.09L913.995 -460.608V-3.28932H897.249Z" fill="white"/>
<path d="M913.994 1975V1466.44L907.076 1975H913.994Z" fill="white"/>
<path d="M940.931 -3.28936L940.203 -460.608V824.084L957.677 -460.608V-3.28936H940.931Z" fill="white"/>
<path d="M957.678 1975V1466.44L950.762 1975H957.678Z" fill="white"/>
<path d="M984.615 -3.28932L983.887 -460.608V824.09L1001.36 -460.608V-3.28932H984.615Z" fill="white"/>
<path d="M1001.36 1975V1466.43L994.441 1975H1001.36Z" fill="white"/>
<path d="M1028.3 -3.28936L1027.57 -460.608V824.084L1045.04 -460.608V-3.28936H1028.3Z" fill="white"/>
<path d="M1045.04 1975V1466.44L1038.12 1975H1045.04Z" fill="white"/>
<path d="M1071.98 -3.28936L1071.25 -460.608V824.084L1088.73 -460.608V-3.28936H1071.98Z" fill="white"/>
<path d="M1088.73 1975V1466.44L1081.81 1975H1088.73Z" fill="white"/>
<path d="M1115.66 -3.28932L1114.94 -460.608V824.09L1132.41 -460.608V-3.28932H1115.66Z" fill="white"/>
<path d="M1132.41 1975V1466.43L1125.49 1975H1132.41Z" fill="white"/>
<path d="M1159.35 -3.28936L1158.62 -460.608V824.084L1176.09 -460.608V-3.28936H1159.35Z" fill="white"/>
<path d="M1176.09 1975V1466.44L1169.18 1975H1176.09Z" fill="white"/>
<path d="M1203.03 -3.28932L1202.3 -460.608V824.09L1219.78 -460.608V-3.28932H1203.03Z" fill="white"/>
<path d="M1219.78 1975V1466.43L1212.86 1975H1219.78Z" fill="white"/>
<path d="M1246.71 -3.28936L1245.98 -460.608V824.084L1263.46 -460.608V-3.28936H1246.71Z" fill="white"/>
<path d="M1263.46 1975V1466.44L1256.54 1975H1263.46Z" fill="white"/>
<path d="M1290.4 -3.28936L1289.67 -460.608V824.084L1307.14 -460.608V-3.28936H1290.4Z" fill="white"/>
<path d="M1307.14 1975V1466.44L1300.22 1975H1307.14Z" fill="white"/>
<path d="M1334.08 -3.28932L1333.35 -460.608V824.09L1350.83 -460.608V-3.28932H1334.08Z" fill="white"/>
<path d="M1350.82 1975V1466.43L1343.91 1975H1350.82Z" fill="white"/>
<path d="M1377.76 -3.28936L1377.03 -460.608V824.084L1394.5 -460.608V-3.28936H1377.76Z" fill="white"/>
<path d="M1394.51 1975V1466.44L1387.59 1975H1394.51Z" fill="white"/>
<path d="M1421.44 -3.28932L1420.72 -460.608V824.09L1438.19 -460.608V-3.28932H1421.44Z" fill="white"/>
<path d="M1438.19 1975V1466.43L1431.27 1975H1438.19Z" fill="white"/>
<path d="M1465.13 -3.28936L1464.4 -460.608V824.084L1481.87 -460.608V-3.28936H1465.13Z" fill="white"/>
<path d="M1481.87 1975V1466.44L1474.96 1975H1481.87Z" fill="white"/>
<path d="M1508.81 -3.28936L1508.08 -460.608V824.084L1525.56 -460.608V-3.28936H1508.81Z" fill="white"/>
<path d="M1525.55 1975V1466.44L1518.64 1975H1525.55Z" fill="white"/>
<path d="M1552.49 -3.28932L1551.76 -460.608V824.09L1569.24 -460.608V-3.28932H1552.49Z" fill="white"/>
<path d="M1569.24 1975V1466.43L1562.32 1975H1569.24Z" fill="white"/>
<path d="M1596.18 -3.28936L1595.45 -460.608V824.084L1612.92 -460.608V-3.28936H1596.18Z" fill="white"/>
<path d="M1612.92 1975V1466.44L1606 1975H1612.92Z" fill="white"/>
<path d="M1639.86 -3.28932L1639.13 -460.608V824.09L1656.61 -460.608V-3.28932H1639.86Z" fill="white"/>
<path d="M1656.6 1975V1466.43L1649.69 1975H1656.6Z" fill="white"/>
<path d="M1683.54 -3.28936L1682.81 -460.608V824.084L1700.29 -460.608V-3.28936H1683.54Z" fill="white"/>
<path d="M1700.29 1975V1466.44L1693.37 1975H1700.29Z" fill="white"/>
<path d="M1727.23 -3.28936L1726.5 -460.608V824.084L1743.97 -460.608V-3.28936H1727.23Z" fill="white"/>
<path d="M1743.97 1975V1466.44L1737.05 1975H1743.97Z" fill="white"/>
<path d="M1770.91 -3.28926L1770.18 -460.617V824.081L1787.66 -460.608V-3.28926H1770.91Z" fill="white"/>
<path d="M1787.65 1975V1466.43L1780.74 1975H1787.65Z" fill="white"/>
<path d="M1814.59 -3.28936L1813.86 -460.608V824.084L1831.34 -460.608V-3.28936H1814.59Z" fill="white"/>
<path d="M1831.34 1975V1466.44L1824.42 1975H1831.34Z" fill="white"/>
<path d="M1858.27 -3.2893L1857.55 -460.608V824.084L1875.02 -460.617V-3.2893H1858.27Z" fill="white"/>
<path d="M1875.02 1975V1466.43L1868.1 1975H1875.02Z" fill="white"/>
<path d="M1901.96 -3.28936L1901.23 -460.608V824.081L1918.7 -460.608V-3.28936H1901.96Z" fill="white"/>
<path d="M1918.7 1975V1466.44L1911.79 1975H1918.7Z" fill="white"/>
</g>
</g>
</g>
<defs>
<clipPath id="clip0_533_350">
<rect width="1920" height="1920" fill="white"/>
</clipPath>
<clipPath id="clip1_533_350">
<rect width="2010" height="1975" fill="white" transform="translate(-36.6562 -0.00012207)"/>
</clipPath>
</defs>
</svg>
