<svg width="1920" height="1920" viewBox="0 0 1920 1920" fill="none" xmlns="http://www.w3.org/2000/svg">
<g clip-path="url(#clip0_522_4)">
<path d="M1919.85 0.150009H0.150391V1919.85H1919.85V0.150009Z" fill="black"/>
<g opacity="0.86">
<path d="M1919.85 1920H0.149977C0.0671895 1920 0 1919.93 0 1919.85V0.149977C0 0.0671895 0.0671895 0 0.149977 0H1919.85C1919.93 0 1920 0.0671895 1920 0.149977V1919.85C1920 1919.93 1919.93 1920 1919.85 1920ZM0.299953 1919.7H1919.7V0.299953H0.299953V1919.7Z" fill="#B1B1B1"/>
</g>
<path d="M212.994 1388.54C435.072 1271.71 729.615 1116.77 962.657 994.16Z" fill="black"/>
<path d="M212.994 1388.69C212.94 1388.69 212.888 1388.66 212.861 1388.61C212.822 1388.54 212.851 1388.45 212.924 1388.41C300.793 1342.18 400.005 1289.99 502.265 1236.2C658.456 1154.03 821.752 1068.13 962.589 994.029C962.663 993.991 962.753 994.018 962.792 994.092C962.83 994.166 962.802 994.256 962.729 994.294C821.893 1068.39 658.595 1154.3 502.404 1236.46C400.145 1290.26 300.933 1342.45 213.064 1388.67C213.041 1388.68 213.017 1388.69 212.994 1388.69Z" fill="#B1B1B1"/>
<path d="M1716.09 1388.93C1716.03 1388.93 1715.98 1388.9 1715.96 1388.85C1715.92 1388.77 1715.95 1388.68 1716.02 1388.64L1716.47 1388.42C1716.54 1388.38 1716.63 1388.41 1716.67 1388.48C1716.71 1388.56 1716.68 1388.65 1716.6 1388.69L1716.16 1388.91C1716.14 1388.92 1716.11 1388.93 1716.09 1388.93Z" fill="#B1B1B1"/>
<path d="M263.268 1411.99L260.43 1413.49Z" fill="black"/>
<path d="M260.431 1413.65C260.377 1413.65 260.325 1413.62 260.299 1413.57C260.26 1413.49 260.288 1413.4 260.361 1413.36L263.2 1411.86C263.275 1411.83 263.364 1411.85 263.402 1411.93C263.441 1412 263.413 1412.09 263.34 1412.13L260.501 1413.63C260.479 1413.64 260.455 1413.65 260.431 1413.65Z" fill="#B1B1B1"/>
<path d="M213.438 1388.93C213.414 1388.93 213.389 1388.92 213.368 1388.91L212.923 1388.67C212.849 1388.63 212.823 1388.54 212.861 1388.47C212.901 1388.39 212.992 1388.37 213.064 1388.41L213.509 1388.65C213.582 1388.68 213.609 1388.77 213.57 1388.85C213.544 1388.9 213.492 1388.93 213.438 1388.93Z" fill="#B1B1B1"/>
<path d="M1716.53 1388.53L1713.7 1387.04Z" fill="black"/>
<path d="M1716.53 1388.68C1716.51 1388.68 1716.49 1388.67 1716.46 1388.66L1713.63 1387.17C1713.55 1387.13 1713.52 1387.04 1713.56 1386.97C1713.6 1386.9 1713.69 1386.87 1713.76 1386.91L1716.6 1388.39C1716.68 1388.43 1716.7 1388.52 1716.67 1388.59C1716.64 1388.65 1716.59 1388.68 1716.53 1388.68Z" fill="#B1B1B1"/>
<path d="M1337.8 1189.3C1246.46 1141.25 1059.7 1043 966.855 994.16Z" fill="black"/>
<path d="M1337.8 1189.45C1337.77 1189.45 1337.75 1189.44 1337.73 1189.43L966.787 994.292C966.714 994.253 966.686 994.163 966.724 994.089C966.763 994.016 966.855 993.989 966.927 994.027L1337.87 1189.16C1337.94 1189.2 1337.97 1189.29 1337.93 1189.37C1337.9 1189.42 1337.85 1189.45 1337.8 1189.45V1189.45Z" fill="#B1B1B1"/>
<path d="M1340.64 1187.8L1337.81 1189.3Z" fill="black"/>
<g opacity="0.28">
<path d="M1337.81 1189.45C1337.76 1189.45 1337.71 1189.42 1337.68 1189.37C1337.64 1189.3 1337.67 1189.2 1337.74 1189.17L1340.57 1187.67C1340.64 1187.63 1340.73 1187.65 1340.77 1187.73C1340.81 1187.8 1340.78 1187.89 1340.71 1187.93L1337.88 1189.43C1337.86 1189.44 1337.84 1189.45 1337.81 1189.45Z" fill="#B1B1B1"/>
</g>
<path d="M1716.53 1385.55L1713.7 1387.04Z" fill="black"/>
<g opacity="0.28">
<path d="M1713.7 1387.19C1713.64 1387.19 1713.59 1387.16 1713.56 1387.11C1713.53 1387.04 1713.55 1386.94 1713.63 1386.91L1716.47 1385.42C1716.54 1385.38 1716.63 1385.41 1716.67 1385.48C1716.71 1385.56 1716.68 1385.65 1716.6 1385.68L1713.77 1387.17C1713.74 1387.18 1713.72 1387.19 1713.7 1387.19Z" fill="#B1B1B1"/>
</g>
<g opacity="0.28">
<path d="M1716.55 1385.69H1716.53C1716.45 1385.69 1716.38 1385.62 1716.38 1385.54C1716.38 1385.46 1716.45 1385.39 1716.53 1385.39C1716.62 1385.39 1716.69 1385.46 1716.69 1385.54C1716.69 1385.62 1716.63 1385.69 1716.55 1385.69Z" fill="#B1B1B1"/>
</g>
<path d="M592.176 1189.54C591.306 1189.07 589.82 1188.29 588.879 1187.8Z" fill="black"/>
<g opacity="0.28">
<path d="M592.176 1189.69C592.152 1189.69 592.128 1189.68 592.105 1189.67C591.345 1189.26 590.11 1188.61 589.185 1188.13L588.811 1187.93C588.737 1187.89 588.71 1187.8 588.747 1187.73C588.785 1187.66 588.877 1187.63 588.95 1187.67L589.324 1187.86C590.25 1188.35 591.485 1189 592.247 1189.41C592.32 1189.44 592.346 1189.53 592.308 1189.61C592.282 1189.66 592.229 1189.69 592.176 1189.69V1189.69Z" fill="#B1B1B1"/>
</g>
<path d="M1666.22 1412.75C1664.71 1421.51 1655.04 1427.15 1646.24 1433.13C1583.84 1469.25 1505.33 1507.75 1440.69 1542.66C1310.27 1611.33 1166.84 1686.74 1036.28 1755.36C1025.14 1761.22 1013.62 1766.97 1002.92 1771.76C983.425 1780.62 964.755 1785.2 944.071 1778.4C926.645 1772.89 909.226 1763.59 892.272 1754.87C783.968 1697.89 659.789 1632.66 554.298 1577.11C471.79 1533.4 378.463 1485.26 296.974 1441.24C284.879 1433.96 263.619 1423.35 263.314 1411.6C263.365 1404.6 271.575 1397.61 286.482 1388.66C288.549 1387.41 290.742 1386.13 293.054 1384.82C315.33 1372.19 337.691 1361.04 367.009 1345.42C440.528 1306.77 517.135 1266.42 590.573 1227.8C658.03 1192.27 724.353 1157.44 792.463 1121.58C827.549 1103.15 869.495 1080.83 901.67 1064.42C921.174 1054.51 946.952 1042.82 965.224 1043.7C980.682 1043.21 1001.43 1051.47 1019.62 1060.38C1041.25 1070.86 1060.89 1081.66 1086.76 1095.13C1125.18 1115.35 1166.72 1137.19 1205.09 1157.38C1304.92 1209.89 1401.94 1260.95 1501.88 1313.53C1543.13 1335.22 1593.67 1361.62 1630.01 1381.2C1645.36 1389.96 1668.04 1401.9 1666.23 1412.67L1666.22 1412.75Z" fill="black"/>
<path d="M212.988 1385.54C214.083 1386.11 215.521 1386.87 216.299 1387.28Z" fill="black"/>
<g opacity="0.28">
<path d="M216.298 1387.43C216.274 1387.43 216.25 1387.42 216.228 1387.41L212.918 1385.67C212.845 1385.63 212.817 1385.54 212.854 1385.47C212.893 1385.4 212.984 1385.37 213.057 1385.41L216.367 1387.15C216.441 1387.18 216.468 1387.27 216.431 1387.35C216.405 1387.4 216.352 1387.43 216.298 1387.43Z" fill="#B1B1B1"/>
</g>
<g opacity="0.86">
<path d="M917.787 1018.4C917.704 1018.4 917.637 1018.34 917.637 1018.25V1014.78C917.637 1014.7 917.704 1014.63 917.787 1014.63C917.869 1014.63 917.937 1014.7 917.937 1014.78V1018.25C917.937 1018.34 917.869 1018.4 917.787 1018.4Z" fill="#B1B1B1"/>
</g>
<path d="M1716.17 599.12C1717.37 599.771 1718.19 601.028 1718.76 602.95C1719.66 607.015 1720.02 611.379 1720.04 616.196C1719.99 819.867 1720.66 1246.01 1719.82 1371.13C1719.12 1381.03 1717.82 1387.24 1705.24 1382.94C1696.85 1379.85 1687.48 1375.2 1678.21 1370.34C1581 1319.16 1436.14 1242.64 1336.36 1189.99C1239.99 1139.21 1103.53 1067.11 1008.11 1016.7C998.68 1011.74 989.131 1006.46 981.625 1001.5C969.617 993.376 971.477 989.271 981.778 982.898C1099.82 919.455 1503.98 707.047 1698.81 604.143C1703.21 601.832 1707.36 599.996 1711.44 598.882C1713.44 598.428 1714.97 598.478 1716.14 599.101L1716.17 599.119V599.12Z" fill="black"/>
<path d="M216.297 1387.28L213.445 1388.78Z" fill="black"/>
<g opacity="0.86">
<path d="M213.445 1388.93C213.391 1388.93 213.34 1388.9 213.312 1388.85C213.274 1388.77 213.302 1388.68 213.376 1388.65L216.228 1387.15C216.301 1387.11 216.392 1387.14 216.43 1387.21C216.469 1387.28 216.44 1387.37 216.367 1387.41L213.515 1388.91C213.492 1388.92 213.468 1388.93 213.445 1388.93Z" fill="#B1B1B1"/>
</g>
<path d="M263.268 1411.99L260.43 1413.49Z" fill="black"/>
<g opacity="0.86">
<path d="M260.431 1413.65C260.377 1413.65 260.325 1413.62 260.299 1413.57C260.26 1413.49 260.288 1413.4 260.361 1413.36L263.2 1411.86C263.275 1411.83 263.364 1411.85 263.402 1411.93C263.441 1412 263.413 1412.09 263.34 1412.13L260.501 1413.63C260.479 1413.64 260.455 1413.65 260.431 1413.65Z" fill="#B1B1B1"/>
</g>
<path d="M1716.55 1388.54L1716.54 1388.55V1388.53L1716.55 1388.54Z" fill="black"/>
<g opacity="0.86">
<path d="M1716.53 1388.7C1716.51 1388.7 1716.49 1388.7 1716.47 1388.69C1716.42 1388.66 1716.38 1388.61 1716.38 1388.55C1716.38 1388.49 1716.42 1388.42 1716.48 1388.4C1716.53 1388.38 1716.6 1388.38 1716.64 1388.42C1716.67 1388.45 1716.69 1388.5 1716.69 1388.54C1716.69 1388.58 1716.68 1388.62 1716.65 1388.65L1716.64 1388.66C1716.61 1388.69 1716.57 1388.7 1716.53 1388.7Z" fill="#B1B1B1"/>
</g>
<path d="M948.978 993.007C948.41 998.449 945.367 1004.2 939.056 1010.28C927.524 1021.28 908.306 1029.96 892.249 1038.36C683.975 1145.26 449.907 1265.58 245.557 1370.33C236.167 1375.1 226.779 1379.73 218.372 1382.78C210.164 1385.57 205.113 1385.74 203.329 1377.46C200.033 1243.37 203.394 749.467 202.25 624.306C202.503 615.632 201.703 606.469 204.818 600.695C207.532 595.558 219.742 601.986 225.225 604.604C430.077 709.404 692.275 844.41 896.15 948.965C904.754 953.379 913.283 957.761 921.791 962.137C936.141 968.885 950.681 979.834 948.986 992.922L948.978 993.006V993.007Z" fill="black"/>
<path d="M1714.84 556.732C1709.91 565.757 1694.17 574.179 1673.01 585.481C1662.65 590.929 1652.5 596.306 1641.94 601.84C1476.7 688.766 1284.45 789.903 1114.47 879.325C1087.12 893.783 1062.49 906.619 1037.3 919.919C1016.38 930.986 999.093 940.419 976.359 944.089C947.213 949.427 921.915 935.401 892.723 920.182C873.958 910.256 857.518 901.721 837.706 891.249C754.749 847.575 669.243 802.651 584.301 757.942C484.86 705.618 373.36 646.981 283.681 599.797C272.594 593.986 261.884 588.345 251.111 582.589C227.394 569.754 212.278 560.729 213.925 549.251C215.087 542.732 220.483 537.282 225.99 532.928C236.89 524.188 251.294 517.715 270.16 507.513C371.039 454.382 487.775 393.081 595.358 336.441C679.035 292.382 762.543 248.52 843.904 205.69C862.3 195.95 877.844 187.87 895.356 178.634C922.311 164.668 946.467 151.38 973.27 155.253C997.897 158.151 1018.36 170.424 1040.22 181.811C1067.66 196.337 1094.67 210.386 1124.49 226.141C1297.67 317.218 1495.73 421.457 1664.25 510.089C1684.63 521.633 1724.39 537.094 1714.88 556.675L1714.84 556.736L1714.84 556.732Z" fill="black"/>
<path d="M928.428 162.482C977.805 140.37 1016.39 170.304 1060.8 192.631C1148.54 238.726 1227.5 280.369 1327.02 332.676C1445.09 394.771 1557.25 453.8 1670.92 513.583C1681.57 519.127 1693.12 525.093 1701.76 531.133C1739.76 557.553 1694.89 572.639 1663.34 590.602C1633.5 606.223 1607.02 620.28 1575.82 636.637C1402.77 727.743 1196.85 835.961 1027.7 924.956C1006.62 936.319 981.815 946.021 961.924 945.12C946.256 944.848 933.557 940.241 917.836 932.893C762.639 853.093 468.959 696.51 309.209 613.241C291.216 603.835 271.516 593.399 254.611 584.479C232.701 571.756 199.279 558.982 220.826 537.479C233.768 525.036 254.606 516.059 276.578 504.123C349.66 465.569 418.378 429.611 506.695 383.073C607.292 330.209 697.993 282.404 790.61 233.724C825.895 215.219 847.949 203.522 877.434 188.051C895.049 178.95 914.28 168.282 928.312 162.531L928.429 162.483L928.428 162.482ZM971.097 1785.66C939.92 1786.57 894.463 1761.26 862.581 1744.83C811.239 1717.96 761.99 1691.59 699.01 1658.41C577.43 1594.11 450.402 1526.96 329.959 1463.26C310.351 1452.88 291.868 1443.15 273.472 1432.36C235.565 1411.01 213.769 1387.1 206.188 1346.76C201.078 1322.05 199.338 1297.59 198.754 1271.31C198.229 1080.76 198.497 865.934 198.684 679.046C199.643 657.349 196.877 611.733 214.245 603.23C223.905 598.434 240.03 603.403 265.048 615.166C268.481 616.78 272.076 618.52 275.832 620.378C292.753 628.815 309.201 637.447 326.414 646.539C474.1 724.63 662.359 824.169 812.413 903.524C841.334 918.484 882.45 941.081 898.398 956.241C925.492 979.685 913.588 998.657 888.597 1019.45C832.408 1063.84 757.334 1097.49 693.37 1132.6C594.925 1184.66 496.672 1236.61 397.388 1289.12C369.758 1303.61 339.831 1320.32 315.235 1336.16C300.385 1345.62 241.072 1384.58 263.085 1388.21C270.717 1389.07 287.412 1385 310.483 1376.7C343.366 1364.91 384.181 1346.35 418.155 1328.98C548.064 1260.94 675.582 1192.77 804.232 1125.12C855.213 1099.15 910.77 1068.15 968.763 1067.19C1011.18 1066.37 1053.31 1083.22 1092.48 1102.07C1127.9 1119.19 1163.7 1138.71 1198.55 1157.01C1304.62 1213.08 1411.59 1269.66 1518.96 1326.45C1551.17 1343.51 1588.63 1363.2 1616.15 1380.54C1639.72 1396.4 1667.6 1413.84 1647.88 1436.34C1636.52 1448.98 1617.78 1459.03 1600.32 1469.12C1465.32 1542.1 1281.22 1637.79 1138.31 1713.94C1110.23 1728.78 1083.02 1743.32 1055.29 1757.44C1029.49 1770.58 994.798 1786.71 971.225 1785.66H971.098L971.097 1785.66ZM1712.83 1387.57C1704.43 1387.33 1695.47 1381.9 1686.02 1377.44C1676.13 1372.38 1664.83 1366.47 1654.04 1360.75C1438.65 1246.6 1213.76 1130.02 999.332 1015.67C990.395 1010.73 981.706 1005.75 975.208 1000.47C968.492 994.777 968.859 990.852 976.251 985.712C1118.68 908.132 1572.71 671.3 1691.16 607.971C1699.65 603.818 1707.55 598.703 1714.6 598.353C1718.21 598.573 1719.56 601.797 1720.14 608.654C1720.24 609.859 1720.32 611.174 1720.37 612.602C1720.91 732.123 1720.44 873.894 1720.59 1006.23C1720.35 1133.11 1721.19 1262.8 1720.21 1372.25C1719.62 1378.26 1720.01 1386.75 1712.89 1387.57L1712.83 1387.57Z" fill="black"/>
<g opacity="0.86">
<path d="M973.501 1785.86C972.729 1785.86 971.97 1785.84 971.218 1785.81H971.097C942.621 1786.64 903.068 1766.05 871.271 1749.51C868.257 1747.94 865.331 1746.42 862.511 1744.96C833.562 1729.81 805.031 1714.69 774.826 1698.68C751.022 1686.06 726.408 1673.01 698.939 1658.54C635.335 1624.9 570.242 1590.48 505.38 1556.19C446.256 1524.93 387.323 1493.77 329.887 1463.39L327.154 1461.94C308.529 1452.09 290.936 1442.78 273.396 1432.49C232.687 1409.56 213.172 1384.73 206.04 1346.79C201.517 1324.91 199.292 1302.34 198.602 1271.31C198.112 1092.69 198.317 891.749 198.498 714.464L198.534 679.045C198.691 675.481 198.75 671.217 198.81 666.703C199.134 642.875 199.577 610.241 214.177 603.093C224.497 597.975 242 604.162 265.112 615.028C268.431 616.588 271.96 618.293 275.898 620.241C293.293 628.914 310.425 637.921 326.483 646.405L425.143 698.572C552.282 765.797 694.244 840.859 812.482 903.389C843.042 919.197 882.773 941.18 898.5 956.131C909.013 965.228 914.084 973.984 913.998 982.896C913.891 993.927 906.323 1004.89 888.691 1019.56C847.118 1052.41 795.269 1079.34 745.127 1105.39C727.11 1114.75 710.092 1123.59 693.441 1132.73C594.994 1184.78 496.741 1236.74 397.457 1289.25C375.094 1300.98 342.69 1318.66 315.315 1336.28C305.445 1342.57 256.315 1374.5 258.457 1384.96C258.785 1386.56 260.35 1387.6 263.108 1388.06C270.652 1388.91 287.458 1384.82 310.43 1376.56C340.514 1365.77 380.758 1347.93 418.084 1328.84C490.213 1291.07 562.732 1252.65 632.865 1215.5C688.948 1185.79 746.941 1155.07 804.16 1124.98C808.19 1122.93 812.248 1120.85 816.333 1118.75C840.201 1106.49 864.881 1093.82 890.352 1084.06C919.209 1073 944.857 1067.43 968.761 1067.04C1012.19 1066.21 1055.7 1084.2 1092.55 1101.93C1119.25 1114.83 1146.44 1129.25 1172.73 1143.19C1181.24 1147.7 1190.04 1152.37 1198.62 1156.87C1279.98 1199.88 1363.4 1244 1444.06 1286.66L1524.1 1329C1555.06 1345.39 1590.14 1363.97 1616.23 1380.41C1617.04 1380.96 1617.86 1381.5 1618.67 1382.05C1635.43 1393.29 1652.75 1404.92 1654.57 1418.76C1655.35 1424.71 1653.2 1430.49 1647.99 1436.43C1637.78 1447.8 1621.52 1457.12 1605.79 1466.14C1603.99 1467.18 1602.18 1468.21 1600.4 1469.24C1520.18 1512.61 1421.83 1564.41 1326.71 1614.51C1262.64 1648.26 1196.38 1683.16 1138.38 1714.07C1133.41 1716.69 1128.46 1719.31 1123.53 1721.92C1100.21 1734.28 1078.18 1745.95 1055.35 1757.56C1029.34 1770.82 996.789 1785.85 973.501 1785.85V1785.86ZM971.092 1785.51H971.224C971.97 1785.54 972.731 1785.56 973.499 1785.56C996.726 1785.56 1029.23 1770.54 1055.22 1757.3C1078.04 1745.68 1100.07 1734.01 1123.39 1721.66C1128.32 1719.05 1133.27 1716.43 1138.24 1713.8C1196.24 1682.89 1262.5 1648 1326.57 1614.25C1421.69 1564.15 1520.04 1512.34 1600.25 1468.98C1602.03 1467.95 1603.84 1466.92 1605.64 1465.88C1621.35 1456.87 1637.59 1447.56 1647.77 1436.23C1652.91 1430.36 1655.04 1424.66 1654.27 1418.8C1652.48 1405.09 1635.21 1393.5 1618.5 1382.3C1617.69 1381.75 1616.88 1381.21 1616.07 1380.66C1589.99 1364.23 1554.91 1345.65 1523.96 1329.26L1518.89 1326.58L1443.92 1286.93C1363.26 1244.27 1279.84 1200.15 1198.47 1157.14C1189.9 1152.64 1181.1 1147.97 1172.59 1143.46C1146.3 1129.52 1119.11 1115.1 1092.42 1102.2C1056.43 1084.89 1014.07 1067.31 971.686 1067.31C970.712 1067.31 969.74 1067.32 968.765 1067.34C915.388 1068.22 865.102 1094.04 816.47 1119.02C812.385 1121.11 808.327 1123.2 804.298 1125.25C747.081 1155.34 689.089 1186.06 633.005 1215.76C562.873 1252.91 490.352 1291.33 418.222 1329.11C380.884 1348.2 340.627 1366.04 310.532 1376.84C287.516 1385.11 270.657 1389.21 263.066 1388.36C260.165 1387.88 258.517 1386.76 258.164 1385.02C256.036 1374.63 301.245 1344.89 315.152 1336.02C342.536 1318.4 374.947 1300.71 397.315 1288.98C496.6 1236.47 594.852 1184.52 693.297 1132.47C709.949 1123.33 726.969 1114.49 744.987 1105.13C795.117 1079.08 846.952 1052.15 888.501 1019.33C906.054 1004.72 913.59 993.826 913.697 982.892C913.782 974.074 908.746 965.392 898.298 956.351C882.592 941.421 842.886 919.455 812.341 903.654C694.102 841.125 552.142 766.062 425.002 698.837L326.342 646.67C310.286 638.189 293.154 629.18 275.764 620.509C271.827 618.563 268.301 616.86 264.983 615.3C241.952 604.47 224.518 598.294 214.31 603.362C199.874 610.43 199.433 642.957 199.11 666.707C199.049 671.223 198.991 675.49 198.834 679.051L198.798 714.464C198.617 891.749 198.412 1092.69 198.902 1271.3C199.592 1302.31 201.814 1324.87 206.334 1346.73C213.448 1384.58 232.921 1409.35 273.546 1432.23C291.083 1442.52 308.672 1451.82 327.294 1461.68L330.029 1463.12C387.464 1493.5 446.396 1524.66 505.52 1555.92C570.384 1590.22 635.476 1624.64 699.079 1658.28C726.55 1672.75 751.163 1685.79 774.966 1698.41C805.172 1714.42 833.703 1729.55 862.651 1744.7C865.47 1746.15 868.397 1747.67 871.41 1749.24C902.552 1765.44 941.162 1785.53 969.405 1785.53C969.974 1785.53 970.533 1785.52 971.092 1785.5V1785.51ZM1712.83 1387.72H1712.83C1706.06 1387.53 1699 1384.01 1691.52 1380.3C1689.71 1379.39 1687.83 1378.46 1685.95 1377.58C1676.49 1372.73 1665.43 1366.96 1653.97 1360.88C1559.11 1310.61 1460.73 1258.98 1365.58 1209.05C1244.48 1145.51 1119.26 1079.79 999.262 1015.8C990.681 1011.06 981.75 1005.98 975.114 1000.59C971.706 997.7 970.173 995.29 970.282 993.004C970.397 990.626 972.212 988.338 976.167 985.588C1063.52 938.009 1263.78 832.787 1440.46 739.952C1550.36 682.206 1645.28 632.335 1691.1 607.838C1693.02 606.894 1694.93 605.895 1696.78 604.929C1703.12 601.61 1709.11 598.475 1714.59 598.201C1718.63 598.447 1719.76 602.378 1720.29 608.64C1720.39 609.795 1720.46 611.089 1720.52 612.593C1720.85 686.643 1720.8 767.362 1720.75 852.818C1720.72 903.485 1720.68 955.876 1720.74 1006.23C1720.65 1054.04 1720.71 1102.64 1720.77 1149.63C1720.87 1229.04 1720.97 1304.05 1720.36 1372.25C1720.29 1373.02 1720.23 1373.8 1720.17 1374.63C1719.74 1380.42 1719.25 1386.98 1712.91 1387.71L1712.84 1387.72H1712.83L1712.83 1387.72ZM1714.59 598.502C1709.19 598.772 1703.23 601.892 1696.92 605.196C1695.07 606.163 1693.16 607.164 1691.23 608.107C1645.42 632.601 1550.5 682.473 1440.6 740.218C1263.92 833.054 1063.66 938.275 976.324 985.844C972.519 988.492 970.69 990.774 970.582 993.02C970.478 995.205 971.979 997.538 975.307 1000.36C981.922 1005.73 990.839 1010.8 999.406 1015.54C1119.4 1079.53 1244.62 1145.24 1365.72 1208.79C1460.87 1258.72 1559.26 1310.35 1654.11 1360.62C1665.57 1366.69 1676.63 1372.47 1686.09 1377.31C1687.96 1378.19 1689.84 1379.13 1691.66 1380.03C1699.1 1383.73 1706.13 1387.22 1712.83 1387.42L1712.88 1387.42C1718.97 1386.72 1719.45 1380.29 1719.87 1374.61C1719.93 1373.78 1719.99 1373 1720.06 1372.24C1720.67 1304.05 1720.57 1229.04 1720.47 1149.63C1720.41 1102.64 1720.35 1054.04 1720.44 1006.23C1720.39 955.877 1720.42 903.486 1720.45 852.82C1720.51 767.363 1720.56 686.645 1720.23 612.601C1720.16 611.106 1720.09 609.818 1719.99 608.666C1719.39 601.46 1717.92 598.705 1714.59 598.502H1714.59ZM964.575 945.327C963.681 945.327 962.798 945.308 961.917 945.269C946.387 944.998 933.512 940.384 917.772 933.028C826.986 886.347 690.14 814.094 557.801 744.218C464.023 694.705 375.446 647.936 309.14 613.374C295.413 606.197 280.956 598.561 266.975 591.178C262.713 588.927 258.549 586.727 254.54 584.612C251.505 582.85 248.324 581.127 244.957 579.303C230.423 571.43 215.391 563.289 213.851 552.656C213.132 547.702 215.378 542.703 220.72 537.373C230.586 527.888 244.699 520.585 261.041 512.129C266.063 509.53 271.257 506.844 276.507 503.991C314.32 484.044 350.961 464.793 389.753 444.411C426.255 425.233 464.001 405.401 506.627 382.941C560.113 354.834 611.129 327.984 660.467 302.019C705.054 278.553 747.167 256.389 790.542 233.59C809.39 223.705 824.397 215.797 838.91 208.15C851.623 201.451 863.631 195.124 877.365 187.917C881.716 185.669 886.238 183.288 890.611 180.985C903.921 173.974 917.684 166.725 928.256 162.391L928.373 162.342C970.079 143.67 1004.22 162.13 1040.37 181.674C1047.02 185.275 1053.91 188.999 1060.87 192.497C1106.51 216.473 1149.38 239.042 1194.78 262.937C1236.35 284.816 1279.33 307.442 1327.09 332.542C1388.97 365.085 1449.22 396.784 1508.92 428.191C1563.14 456.715 1616.89 484.998 1670.99 513.451L1671.81 513.877C1682.44 519.404 1693.42 525.12 1701.85 531.011C1712.08 538.123 1716.85 544.744 1716.44 551.251C1715.68 563.234 1697.59 572.672 1678.44 582.665C1673.42 585.285 1668.22 587.995 1663.41 590.734C1647.8 598.907 1633.42 606.488 1618.19 614.516C1604.72 621.622 1590.78 628.971 1575.9 636.772C1473.24 690.811 1358.63 751.084 1247.79 809.371C1170.03 850.26 1096.59 888.882 1027.77 925.089C1010.43 934.442 985.693 945.327 964.577 945.329L964.575 945.327ZM963.334 154.89C952.202 154.89 940.67 157.165 928.489 162.619C928.489 162.619 928.487 162.619 928.486 162.62L928.368 162.668C917.807 166.996 904.05 174.242 890.748 181.249C886.375 183.552 881.852 185.934 877.502 188.182C863.768 195.387 851.76 201.715 839.048 208.413C824.535 216.061 809.528 223.969 790.679 233.854C747.305 256.652 705.191 278.816 660.603 302.282C611.266 328.247 560.249 355.098 506.763 383.203C464.139 405.664 426.393 425.496 389.89 444.675C351.096 465.056 314.455 484.308 276.647 504.254C271.395 507.107 266.2 509.794 261.176 512.394C244.855 520.839 230.76 528.132 220.927 537.586C215.66 542.842 213.442 547.758 214.146 552.611C215.666 563.094 230.629 571.198 245.099 579.036C248.468 580.86 251.65 582.585 254.685 584.347C258.687 586.459 262.852 588.658 267.114 590.909C281.094 598.294 295.551 605.929 309.278 613.105C375.586 647.668 464.163 694.436 557.94 743.951C690.28 813.826 827.125 886.08 917.904 932.757C934.01 940.283 946.378 944.696 961.927 944.968C983.525 945.95 1009.58 934.553 1027.63 924.821C1096.45 888.614 1169.89 849.992 1247.65 809.102C1358.49 750.814 1473.1 690.542 1575.75 636.502C1590.63 628.701 1604.57 621.353 1618.05 614.246C1633.28 606.22 1647.66 598.637 1663.27 590.466C1668.08 587.727 1673.28 585.017 1678.3 582.395C1697.37 572.443 1715.39 563.042 1716.13 551.229C1716.54 544.835 1711.81 538.301 1701.68 531.253C1693.26 525.374 1682.29 519.663 1671.67 514.14L1670.85 513.714C1616.75 485.261 1562.99 456.979 1508.78 428.454C1449.08 397.047 1388.82 365.347 1326.95 332.805C1279.19 307.705 1236.21 285.08 1194.64 263.199C1149.24 239.305 1106.36 216.735 1060.73 192.761C1053.77 189.263 1046.88 185.538 1040.22 181.936C1014.71 168.141 990.199 154.886 963.334 154.886V154.89Z" fill="#B1B1B1"/>
</g>
<path d="M1750.95 524.254C1760.78 537.232 1762.57 563.41 1763.16 586.263C1763.59 608.916 1763.53 631.149 1763.52 654.337C1763.12 861.798 1764.32 1155.75 1763.05 1327.33C1762.24 1353 1758.76 1379.92 1750.4 1401.19C1738.68 1431.04 1714.29 1445.68 1684.08 1462.95C1661.02 1476.03 1638.32 1487.58 1608.71 1503.6C1464.32 1580.64 1290.86 1673.59 1142.32 1752.89C1098.81 1775.85 1058.67 1798.56 1016.01 1819.14C967.108 1843.01 943.366 1834.67 895.669 1810.46C681.338 1696.45 445.283 1571.01 235.921 1457.5C218.074 1447.03 204.722 1437.75 194.822 1426.67C166.143 1394.29 166.664 1341.24 165.993 1298.74C166.225 1121.91 165.757 780.099 166.039 610.187C166.447 587.392 166.34 560.032 170.109 545.5C172.793 533.407 177.37 524.155 185.256 515.641C198.662 502.075 217.502 490.981 237.112 480.263C400.698 391.66 699.543 233.388 859.321 147.441C875.116 138.791 892.101 130.127 906.862 122.698C940.89 106.559 958.869 98.8982 991.641 109.417C1009.58 115.872 1029.31 125.649 1048.19 135.771C1200.31 216.516 1500.72 377.844 1655.56 460.315C1671.05 468.408 1687.19 477.39 1701.22 485.208C1721.38 496.54 1739.86 507.734 1750.9 524.172L1750.95 524.256V524.254Z" fill="black"/>
<g opacity="0.86">
<path d="M964.889 1842.5C942.296 1842.5 921.174 1833.49 891.595 1818.48C891.543 1818.46 891.493 1818.43 891.442 1818.4L859.642 1801.49C658.593 1694.55 430.72 1573.35 231.632 1465.41C231.543 1465.36 231.454 1465.31 231.367 1465.26C210.263 1452.88 197.73 1443.43 188.11 1432.66C158.441 1399.16 157.685 1346.66 157.078 1304.48L156.995 1298.88C156.995 1298.83 156.995 1298.78 156.995 1298.73C157.107 1213.44 157.055 1087.42 157.005 965.541C156.951 834.08 156.894 698.143 157.041 610.172C157.041 610.123 157.041 610.075 157.042 610.025C157.092 607.18 157.135 604.263 157.179 601.309C157.498 579.607 157.828 557.167 161.358 543.395C164.455 529.543 169.793 519.092 178.654 509.526C178.72 509.455 178.787 509.384 178.856 509.316C193.664 494.332 214.464 482.387 232.797 472.367C326.707 421.501 463.711 348.466 596.206 277.836C694.306 225.54 786.965 176.144 855.058 139.515C871.404 130.564 889.171 121.527 902.816 114.658C902.879 114.627 902.942 114.595 903.006 114.565C938.577 97.6936 958.794 89.4221 994.392 100.847C994.492 100.878 994.59 100.913 994.688 100.947C1010.46 106.623 1028.82 115.169 1052.45 127.839C1138 173.249 1269.98 243.896 1397.61 312.214C1497.61 365.739 1592.06 416.295 1659.79 452.37C1675.54 460.598 1692.21 469.884 1705.6 477.344C1726.48 489.082 1746.21 501.093 1758.32 519.07C1769.34 533.885 1771.49 559.997 1772.16 586.029C1772.55 606.312 1772.54 625.9 1772.53 646.639L1772.52 654.338C1772.37 735.43 1772.46 831.682 1772.55 924.766C1772.68 1071.31 1772.83 1222.84 1772.05 1327.39C1772.05 1327.47 1772.05 1327.54 1772.05 1327.61C1771.06 1358.73 1766.6 1384.6 1758.78 1404.48C1745.55 1438.18 1717.86 1454.01 1688.55 1470.76C1674.05 1478.98 1660.07 1486.41 1643.88 1495C1634.17 1500.16 1624.13 1505.49 1613 1511.52C1536.8 1552.17 1451.07 1598.03 1368.16 1642.37C1293.73 1682.18 1216.76 1723.35 1146.56 1760.82C1133.08 1767.94 1119.79 1775.1 1106.94 1782.02C1077.43 1797.93 1049.55 1812.95 1019.93 1827.24C998.326 1837.79 981.225 1842.5 964.895 1842.5L964.889 1842.5ZM899.812 1802.47C946.968 1826.4 967.467 1832.82 1012.07 1811.05C1041.36 1796.92 1069.07 1781.99 1098.4 1766.18C1111.28 1759.24 1124.6 1752.06 1138.12 1744.93C1208.27 1707.48 1285.24 1666.31 1359.66 1626.5C1442.58 1582.16 1528.31 1536.3 1604.47 1495.66C1615.63 1489.63 1625.7 1484.28 1635.43 1479.11C1651.51 1470.58 1665.39 1463.21 1679.64 1455.12C1711.66 1436.82 1731.84 1423.83 1742.02 1397.9C1748.98 1380.21 1753.14 1355.75 1754.05 1327.14C1754.82 1222.67 1754.68 1071.24 1754.54 924.784C1754.46 831.688 1754.37 735.423 1754.52 654.32L1754.52 646.629C1754.54 625.982 1754.55 606.48 1754.16 586.435C1753.82 573.144 1753.01 541.879 1743.78 529.688C1743.64 529.505 1743.51 529.316 1743.38 529.123C1733.46 514.4 1716.42 504.075 1696.81 493.051C1683.54 485.659 1667 476.44 1651.39 468.29C1583.58 432.172 1489.12 381.611 1389.12 328.083C1261.49 259.77 1129.53 189.132 1043.97 143.718C1021.18 131.496 1003.63 123.306 988.739 117.936C959.56 108.611 944.62 114.75 910.817 130.781C897.313 137.579 879.768 146.503 863.641 155.335C795.46 192.011 702.786 241.414 604.67 293.719C472.203 364.335 335.225 437.357 241.396 488.177C224.258 497.544 204.853 508.657 191.757 521.864C185.123 529.06 181.273 536.721 178.892 547.45C178.869 547.554 178.844 547.657 178.817 547.76C175.791 559.425 175.463 581.818 175.172 601.575C175.129 604.523 175.086 607.435 175.035 610.275C174.89 698.228 174.945 834.114 174.999 965.533C175.05 1087.39 175.101 1213.39 174.99 1298.68L175.073 1304.22C175.636 1343.43 176.34 1392.23 201.557 1420.7C209.798 1429.93 221.048 1438.33 240.34 1449.66C439.331 1557.55 667.123 1678.71 868.093 1785.6L899.812 1802.47V1802.47Z" fill="white"/>
</g>
<g opacity="0.86">
<path d="M1763.54 525.292H1763.53C1763.45 525.292 1763.38 525.225 1763.38 525.142C1763.38 525.06 1763.45 524.992 1763.53 524.992C1763.61 524.992 1763.69 525.06 1763.69 525.142C1763.69 525.225 1763.62 525.292 1763.54 525.292Z" fill="#B1B1B1"/>
</g>
<path d="M1665.96 1412.75C1664.45 1421.51 1654.78 1427.15 1645.98 1433.13C1583.58 1469.25 1505.07 1507.75 1440.43 1542.66C1310.01 1611.33 1166.58 1686.74 1036.02 1755.36C1024.88 1761.22 1013.36 1766.97 1002.66 1771.76C983.164 1780.62 964.493 1785.2 943.81 1778.4C926.384 1772.89 908.965 1763.59 892.01 1754.87C783.707 1697.89 659.527 1632.66 554.035 1577.11C471.525 1533.4 378.193 1485.26 296.702 1441.24C284.606 1433.96 263.346 1423.35 263.041 1411.6C263.091 1404.6 271.302 1397.61 286.209 1388.66C288.278 1387.41 290.47 1386.13 292.782 1384.82C315.059 1372.19 337.42 1361.04 366.74 1345.42C440.261 1306.77 516.87 1266.42 590.31 1227.8C657.769 1192.28 724.092 1157.44 792.202 1121.58C827.288 1103.15 869.233 1080.83 901.408 1064.42C920.913 1054.51 946.691 1042.82 964.964 1043.7C980.422 1043.21 1001.17 1051.47 1019.36 1060.38C1040.99 1070.86 1060.63 1081.66 1086.5 1095.13C1124.92 1115.35 1166.46 1137.19 1204.83 1157.38C1304.66 1209.89 1401.68 1260.95 1501.62 1313.53C1542.87 1335.22 1593.41 1361.62 1629.75 1381.2C1645.1 1389.96 1667.78 1401.9 1665.97 1412.67L1665.96 1412.75H1665.96Z" fill="white"/>
<path d="M1714.58 556.732C1709.65 565.757 1693.91 574.179 1672.74 585.481C1662.39 590.929 1652.24 596.306 1641.68 601.84C1476.44 688.766 1284.19 789.903 1114.2 879.325C1086.85 893.783 1062.22 906.619 1037.04 919.919C1016.11 930.986 998.832 940.419 976.098 944.089C946.952 949.427 921.654 935.401 892.461 920.182C873.696 910.256 857.256 901.721 837.445 891.249C754.487 847.575 668.981 802.651 584.04 757.942C484.598 705.618 373.098 646.981 283.419 599.797C272.332 593.986 261.622 588.345 250.849 582.589C227.133 569.754 212.016 560.729 213.663 549.251C214.825 542.732 220.222 537.282 225.729 532.928C236.628 524.188 251.033 517.715 269.899 507.513C370.778 454.382 487.513 393.081 595.096 336.441C678.773 292.382 762.281 248.52 843.642 205.69C862.039 195.95 877.582 187.87 895.095 178.634C922.05 164.668 946.205 151.38 973.008 155.253C997.635 158.151 1018.1 170.424 1039.96 181.811C1067.4 196.337 1094.41 210.386 1124.23 226.141C1297.4 317.218 1495.47 421.457 1663.99 510.089C1684.36 521.633 1724.13 537.094 1714.62 556.675L1714.58 556.736L1714.58 556.732Z" fill="white"/>
</g>
<defs>
<clipPath id="clip0_522_4">
<rect width="1920" height="1920" fill="white"/>
</clipPath>
</defs>
</svg>
