<svg width="1920" height="1920" viewBox="0 0 1920 1920" fill="none" xmlns="http://www.w3.org/2000/svg">
<g clip-path="url(#clip0_514_2)">
<rect width="1920" height="1920" fill="black"/>
<g clip-path="url(#clip1_514_2)">
<g opacity="0.85">
<path d="M1920 0H0V1920H1920V0Z" stroke="white" stroke-width="10"/>
<path d="M58.1816 0V1920" stroke="white" stroke-width="10"/>
<path d="M116.363 0V1920" stroke="white" stroke-width="10"/>
<path d="M232.727 0V1920" stroke="white" stroke-width="10"/>
<path d="M407.271 0V1920" stroke="white" stroke-width="10"/>
<path d="M698.182 0V1920" stroke="white" stroke-width="10"/>
<path d="M756.363 0V1920" stroke="white" stroke-width="10"/>
<path d="M960 0V1920" stroke="white" stroke-width="10"/>
<path d="M1163.64 0V1920" stroke="white" stroke-width="10"/>
<path d="M1221.82 0V1920" stroke="white" stroke-width="10"/>
<path d="M1512.73 0V1920" stroke="white" stroke-width="10"/>
<path d="M1687.27 0V1920" stroke="white" stroke-width="10"/>
<path d="M1803.64 0V1920" stroke="white" stroke-width="10"/>
<path d="M1861.82 0V1920" stroke="white" stroke-width="10"/>
<path d="M0 58.1818H1920" stroke="white" stroke-width="10"/>
<path d="M0 116.364H1920" stroke="white" stroke-width="10"/>
<path d="M0 232.727H1920" stroke="white" stroke-width="10"/>
<path d="M0 407.272H1920" stroke="white" stroke-width="10"/>
<path d="M0 698.181H1920" stroke="white" stroke-width="10"/>
<path d="M0 756.363H1920" stroke="white" stroke-width="10"/>
<path d="M0 960H1920" stroke="white" stroke-width="10"/>
<path d="M0 1163.64H1920" stroke="white" stroke-width="10"/>
<path d="M0 1221.82H1920" stroke="white" stroke-width="10"/>
<path d="M0 1512.73H1920" stroke="white" stroke-width="10"/>
<path d="M0 1687.27H1920" stroke="white" stroke-width="10"/>
<path d="M0 1803.64H1920" stroke="white" stroke-width="10"/>
<path d="M0 1861.82H1920" stroke="white" stroke-width="10"/>
</g>
</g>
<rect x="-6.5" y="-6.5" width="1933" height="1933" stroke="white" stroke-width="13"/>
</g>
<defs>
<clipPath id="clip0_514_2">
<rect width="1920" height="1920" fill="white"/>
</clipPath>
<clipPath id="clip1_514_2">
<rect width="1920" height="1920" fill="white"/>
</clipPath>
</defs>
</svg>
