<svg width="1024" height="303" viewBox="0 0 1024 303" fill="none" xmlns="http://www.w3.org/2000/svg">
<path d="M511.698 21.5655V0H490.358H469.064H447.724H426.43H405.09V21.5655H383.75V43.178V64.7906V86.3561V107.969V129.534H405.09V151.147H426.43H447.724H469.064V172.759H490.358V194.325V215.937V237.503H469.064H447.724V215.937V194.325V172.759H426.43H405.09H383.75V194.325V215.937V237.503V259.115H405.09V280.681H426.43H447.724V302.293H469.064V280.681H490.358H511.698V259.115H533.038V237.503V215.937V194.325V172.759H511.698V151.147H490.358V129.534V107.969H469.064H447.724V86.3561V64.7906V43.178H469.064H490.358V64.7906V86.3561H511.698H533.038V64.7906V43.178H511.698V21.5655Z" fill="black"/>
<path d="M980.763 0V21.5655V43.178V64.7906V86.3561V107.969V129.534V151.147V172.759V194.325V215.937V237.503H959.423H938.129H916.789V215.937V194.325V172.759V151.147V129.534V107.969V86.3561V64.7906V43.178V21.5655V0H895.449H874.155V21.5655V43.178V64.7906V86.3561V107.969V129.534V151.147V172.759V194.325V215.937V237.503V259.115H895.449V280.681H916.789H938.129V302.293H959.423V280.681H980.763H1002.06V259.115H1023.4V237.503V215.937V194.325V172.759V151.147V129.534V107.969V86.3561V64.7906V43.178V21.5655V0H1002.06H980.763Z" fill="black"/>
<path d="M788.885 0H767.545V21.5655V43.178V64.7906V86.3561V107.969V129.534V151.147H746.205H724.911V129.534V107.969V86.3561V64.7906V43.178V21.5655V0H703.571H682.278H660.938V21.5655V43.178V64.7906V86.3561V107.969V129.534V151.147V172.759H639.597V151.147V129.534V107.969V86.3561H618.304V64.7906V43.178V21.5655V0H596.964H575.67H554.33V21.5655V43.178V64.7906V86.3561V107.969H575.67V129.534V151.147V172.759V194.325V215.937V237.503V259.115H596.964V280.681H618.304H639.597H660.938H682.278V259.115V237.503V215.937V194.325H703.571V172.759H724.911V194.325V215.937V237.503V259.115V280.681H746.205H767.545H788.885H810.179V259.115V237.503V215.937V194.325V172.759H831.519V151.147V129.534V107.969V86.3561V64.7906V43.178V21.5655V0H810.179H788.885Z" fill="black"/>
<path d="M319.823 0H298.483H277.189H255.849H234.509H213.215V21.5655H191.875V43.178V64.7906V86.3561V107.969V129.534V151.147V172.759V194.325V215.937V237.503V259.115H213.215V280.681H234.509H255.849V302.293H277.189V280.681H298.483H319.823V259.115H341.117V237.503V215.937V194.325V172.759H319.823H298.483H277.189V194.325V215.937V237.503H255.849V215.937V194.325V172.759V151.147V129.534V107.969V86.3561V64.7906V43.178H277.189V64.7906V86.3561V107.969V129.534H298.483H319.823H341.117V107.969V86.3561V64.7906V43.178V21.5655H319.823V0Z" fill="black"/>
<path d="M127.901 0H106.608V21.5655H85.2676V43.178V64.7906V86.3561H63.9739V64.7906V43.178V21.5655V0H42.6338H21.3401H0V21.5655H21.3401V43.178V64.7906V86.3561H42.6338V107.969V129.534V151.147V172.759H63.9739V194.325V215.937V237.503V259.115V280.681H85.2676H106.608V259.115V237.503V215.937V194.325V172.759H127.901V151.147V129.534V107.969V86.3561H149.241V64.7906V43.178V21.5655H170.582V0H149.241H127.901Z" fill="black"/>
</svg>
